# xmcd CD database file
#
# Track frame offsets:
#	151
#	9774
#	32775
#	52454
#	75175
#	138413
#	165903
#	199338
#	207455
#
# Disc length: 3027 seconds
#
# Revision: 1
# Processed by: cddbd v1.5.1PL0 Copyright (c) Steve Scherf et al.
# Submitted via: CDex 1.51
#
DISCID=710bd109
DTITLE=Symphony X - Live In Olympus 1
DYEAR=1998
DGENRE=Heavy Metal
TTITLE0=The Divine Wings Of Tragedy
TTITLE1=Of Sins And Shadows
TTITLE2=The Eyes Of Medusa
TTITLE3=Dressed To Kill
TTITLE4=Through The Looking Glass
TTITLE5=Smoke And Mirrors
TTITLE6=Church Of The Machine
TTITLE7=Sonata
TTITLE8=In The Dragon's Den
EXTD=YEAR: 1998
EXTT0=
EXTT1=
EXTT2=
EXTT3=
EXTT4=
EXTT5=
EXTT6=
EXTT7=
EXTT8=
PLAYORDER=
